<svg xmlns="http://www.w3.org/2000/svg" width="19" height="19" viewBox="0 0 19 19">
  <defs>
    <style>
      .cls-1 {
        fill: #fff;
        fill-rule: evenodd;
      }
    </style>
  </defs>
  <path class="cls-1" d="M441.488,315.312a3.727,3.727,0,0,0,0-7.453,3.684,3.684,0,0,0-1.536.334A3.725,3.725,0,0,0,441.488,315.312Zm0.012-6.479a2.754,2.754,0,1,1-2.754,2.753A2.754,2.754,0,0,1,441.5,308.833Zm4.135,0.292H451v8.137A3.738,3.738,0,0,1,447.262,321H435.788A3.782,3.782,0,0,1,432,317.262v-8.137h5.342a4.786,4.786,0,0,0-.691,2.461,4.837,4.837,0,1,0,9.673,0A4.785,4.785,0,0,0,445.635,309.125ZM447.262,302h-9.72v3.958H436.75V302h-0.792v3.958h-0.791v-3.9a3.763,3.763,0,0,0-.792.214v3.683h-0.791v-3.247A3.718,3.718,0,0,0,432,305.739v2.6h5.916a4.818,4.818,0,0,1,7.143,0H451v-2.6A3.737,3.737,0,0,0,447.262,302Zm2.155,4.168a0.586,0.586,0,0,1-.59.582h-1.988a0.585,0.585,0,0,1-.589-0.582v-2a0.585,0.585,0,0,1,.589-0.582h1.988a0.586,0.586,0,0,1,.59.582v2Z" transform="translate(-432 -302)"/>
</svg>
