<svg xmlns="http://www.w3.org/2000/svg" width="19" height="19" viewBox="0 0 19 19">
  <defs>
    <style>
      .cls-1 {
        fill: #fff;
        fill-rule: evenodd;
      }
    </style>
  </defs>
  <path class="cls-1" d="M393.5,302a9.5,9.5,0,0,0-3.462,18.346,9.1,9.1,0,0,1,.033-2.724c0.173-.742,1.114-4.722,1.114-4.722a3.438,3.438,0,0,1-.284-1.411c0-1.321.766-2.307,1.719-2.307a1.193,1.193,0,0,1,1.2,1.338,19.14,19.14,0,0,1-.787,3.163,1.38,1.38,0,0,0,1.407,1.717c1.688,0,2.986-1.781,2.986-4.35a3.75,3.75,0,0,0-3.968-3.866,4.113,4.113,0,0,0-4.29,4.123,3.688,3.688,0,0,0,.708,2.167,0.288,0.288,0,0,1,.065.274c-0.072.3-.232,0.945-0.264,1.077-0.041.174-.137,0.211-0.317,0.127a4.257,4.257,0,0,1-1.929-3.68c0-3,2.178-5.75,6.277-5.75a5.576,5.576,0,0,1,5.857,5.487c0,3.274-2.064,5.909-4.929,5.909a2.545,2.545,0,0,1-2.178-1.09s-0.477,1.814-.592,2.258a10.578,10.578,0,0,1-1.181,2.491A9.5,9.5,0,1,0,393.5,302Z" transform="translate(-384 -302)"/>
</svg>
