<svg xmlns="http://www.w3.org/2000/svg" width="17.469" height="14" viewBox="0 0 17.469 14">
  <defs>
    <style>
      .cls-1 {
        fill: #fff;
        fill-rule: evenodd;
      }
    </style>
  </defs>
  <path class="cls-1" d="M576.327,307.38a7.237,7.237,0,0,1-2.059.555,3.54,3.54,0,0,0,1.576-1.952,7.219,7.219,0,0,1-2.277.856,3.6,3.6,0,0,0-2.615-1.114,3.556,3.556,0,0,0-3.583,3.529,3.435,3.435,0,0,0,.092.8,10.229,10.229,0,0,1-7.388-3.688,3.5,3.5,0,0,0,1.109,4.713,3.632,3.632,0,0,1-1.624-.441v0.044a3.543,3.543,0,0,0,2.876,3.46,3.545,3.545,0,0,1-.945.125,3.631,3.631,0,0,1-.673-0.063,3.575,3.575,0,0,0,3.347,2.45,7.336,7.336,0,0,1-5.306,1.462,10.261,10.261,0,0,0,5.494,1.585,10.046,10.046,0,0,0,10.2-10.041c0-.154,0-0.306-0.01-0.457a7.2,7.2,0,0,0,1.788-1.827" transform="translate(-558.844 -305.719)"/>
</svg>
